<svg width="614" height="216" viewBox="0 0 614 216" fill="none" xmlns="http://www.w3.org/2000/svg">
<path d="M43.0509 0V60.5084H77.1949V0H120.237V172.872H77.1949V101.992H43.0509V172.872H0V0H43.0509Z" fill="#1246A3"/>
<path d="M257.306 112.862C257.306 121.26 255.656 129.246 252.357 136.819C249.056 144.394 244.56 151.102 238.865 156.943C233.175 162.786 226.579 167.396 219.077 170.774C211.573 174.145 203.615 175.832 195.204 175.832C186.791 175.832 178.831 174.145 171.323 170.774C163.819 167.396 157.223 162.786 151.535 156.943C145.844 151.102 141.35 144.394 138.052 136.819C134.751 129.246 133.103 121.26 133.103 112.862C133.103 104.467 134.751 96.4811 138.052 88.9059C141.35 81.3329 145.844 74.667 151.535 68.9085C157.223 63.1456 163.819 58.5354 171.323 55.0777C178.831 51.6158 186.791 49.8838 195.204 49.8838C203.781 49.8838 211.819 51.6158 219.323 55.0777C226.831 58.5354 233.386 63.1858 238.992 69.0269C244.603 74.8701 249.056 81.5782 252.357 89.1512C255.656 96.7264 257.306 104.629 257.306 112.862ZM195.204 138.299C198.666 138.299 201.882 137.601 204.848 136.201C207.819 134.803 210.376 132.911 212.518 130.525C214.664 128.135 216.314 125.416 217.467 122.37C218.624 119.325 219.204 116.157 219.204 112.862C219.204 109.57 218.624 106.399 217.467 103.354C216.314 100.309 214.706 97.5935 212.645 95.208C210.581 92.8183 208.026 90.9234 204.975 89.5234C201.925 88.1256 198.586 87.4256 194.958 87.4256C191.495 87.4256 188.319 88.1256 185.433 89.5234C182.545 90.9234 180.028 92.8183 177.882 95.208C175.74 97.5935 174.09 100.309 172.933 103.354C171.781 106.399 171.204 109.57 171.204 112.862C171.204 116.157 171.781 119.325 172.933 122.37C174.09 125.416 175.74 128.135 177.882 130.525C180.028 132.911 182.586 134.803 185.552 136.201C188.522 137.601 191.74 138.299 195.204 138.299Z" fill="#1246A3"/>
<path d="M298.123 52.8528V72.8503H298.623C301.091 65.6092 304.839 60.466 309.869 57.4207C314.903 54.3754 322.7 52.8528 333.259 52.8528V88.9058C326.822 89.4027 321.668 90.0203 317.793 90.7583C313.916 91.4985 310.905 92.7758 308.759 94.5903C306.617 96.4006 305.174 98.9531 304.428 102.246C303.687 105.534 303.318 109.897 303.318 115.332V172.871H263.733V52.8528H298.123Z" fill="#1246A3"/>
<path d="M468.591 172.872H429.006V116.567C429.006 106.687 426.695 99.114 422.074 93.8461C417.458 88.5803 410.449 85.9452 401.049 85.9452C397.415 85.9452 393.949 86.6452 390.65 88.0431C387.356 89.4431 384.472 91.2956 381.998 93.6008C379.523 95.9017 377.542 98.6593 376.057 101.874C374.57 105.084 373.828 108.497 373.828 112.118C373.828 120.516 376.341 127.226 381.371 132.251C386.405 137.271 392.714 139.779 400.303 139.779C403.93 139.779 407.311 139.449 410.447 138.79C413.583 138.13 416.468 137.307 419.108 136.32V168.921C415.311 171.556 411.269 173.364 406.981 174.352C402.693 175.337 397.828 175.832 392.388 175.832C384.964 175.832 377.746 174.31 370.735 171.264C363.729 168.219 357.545 163.939 352.184 158.423C346.822 152.908 342.492 146.325 339.193 138.671C335.892 131.014 334.244 122.493 334.244 113.108C334.244 104.221 335.892 95.9503 339.193 88.2969C342.492 80.6392 347.028 73.9713 352.803 68.2909C358.576 62.6064 365.502 58.1188 373.583 54.8239C381.667 51.5312 390.574 49.8838 400.303 49.8838C410.693 49.8838 420.093 51.3261 428.506 54.2064C436.917 57.0889 444.093 61.0816 450.032 66.1846C455.968 71.2897 460.545 77.3401 463.761 84.338C466.981 91.3379 468.591 98.9512 468.591 107.178V172.872Z" fill="#1246A3"/>
<path d="M552.957 52.853V84.9556H521.533C519.72 84.9556 517.987 85.4927 516.338 86.5628C514.688 87.6287 513.864 88.9864 513.864 90.6317C513.864 93.2709 518.813 96.5658 528.711 100.512C538.603 104.467 546.313 109.161 551.838 114.596C557.364 120.027 560.127 126.858 560.127 135.085C560.127 147.6 556.495 157.026 549.237 163.364C541.983 169.704 532.171 172.872 519.805 172.872H474.525V139.289H513.118C514.932 139.289 516.457 138.836 517.694 137.927C518.932 137.02 519.55 135.66 519.55 133.85C519.55 131.714 518.313 130.068 515.838 128.918C513.368 127.763 509.741 126.198 504.957 124.223C500.341 122.244 496.216 120.186 492.584 118.048C488.957 115.906 485.906 113.395 483.432 110.519C480.957 107.639 479.059 104.306 477.737 100.52C476.419 96.7307 475.762 92.2008 475.762 86.9266C475.762 81.6607 476.792 76.9278 478.855 72.7321C480.917 68.5321 483.72 64.9496 487.262 61.9889C490.809 59.024 494.851 56.759 499.389 55.1962C503.925 53.6355 508.669 52.853 513.618 52.853H552.957Z" fill="#1246A3"/>
<path d="M552.587 190.188C550.495 190.188 548.752 189.494 547.358 188.107C545.968 186.715 545.273 184.977 545.273 182.896C545.273 180.811 545.968 179.114 547.358 177.812C548.752 176.509 550.495 175.858 552.587 175.858H605.731C607.82 175.858 609.561 176.532 610.951 177.879C612.345 179.222 613.044 180.937 613.044 183.023C613.044 185.11 612.345 186.827 610.951 188.174C609.561 189.517 607.82 190.188 605.731 190.188H552.587ZM578.968 215.607C576.527 215.607 574.502 214.827 572.892 213.264C571.281 211.697 570.476 209.699 570.476 207.267V156.435C570.476 153.999 571.303 152.001 572.959 150.438C574.614 148.877 576.659 148.095 579.095 148.095C581.62 148.095 583.642 148.877 585.163 150.438C586.688 152.001 587.451 153.999 587.451 156.435V207.267C587.451 209.699 586.665 211.697 585.095 213.264C583.529 214.827 581.487 215.607 578.968 215.607Z" fill="#F28322"/>
</svg>
