<svg width="494" height="290" viewBox="0 0 494 290" fill="none" xmlns="http://www.w3.org/2000/svg">
<mask id="mask0_609_29" style="mask-type:luminance" maskUnits="userSpaceOnUse" x="0" y="0" width="494" height="290">
<path d="M0 289.072H493.229V7.05751e-06H0V289.072Z" fill="white"/>
</mask>
<g mask="url(#mask0_609_29)">
<path d="M334.802 5.13556C326.586 3.20089 318.329 1.36622 309.794 0.119556C309.474 0.0702231 309.116 0.0502228 308.797 -0.000443821C296.672 8.95422 285.504 18.8369 275.453 29.4556C286.581 27.8209 297.949 26.7836 309.554 26.3649C350.077 24.8796 388.609 31.5209 423.388 44.1742C398.301 26.8929 368.028 13.2716 334.802 5.13556Z" fill="#004B8D"/>
<path d="M316.733 94.3501C362.6 72.7021 410.624 63.5581 455.933 65.5528C416.925 48.3221 372.156 39.2568 324.829 40.9728C301.497 41.8301 278.961 45.2608 257.621 50.9048C246.972 65.2035 238.177 80.5794 231.496 96.7621C241.787 106.885 253.015 116.415 265.1 125.202C280.856 113.545 298.105 103.154 316.733 94.3501Z" fill="#F68B1F"/>
<path d="M257.623 50.9048C239.875 55.5914 222.923 61.8128 206.969 69.3914C223.122 89.9728 242.587 108.849 265.083 125.202H265.102C253.017 116.406 241.789 106.885 231.497 96.7635C238.178 80.5888 246.974 65.2128 257.623 50.9048Z" fill="#FCBB7E"/>
<path d="M265.121 125.212C253.036 116.437 241.787 106.884 231.496 96.7624C221.944 119.877 216.74 144.636 216.66 170.324C230.659 153.88 246.893 138.724 265.121 125.212Z" fill="#FCBB7E"/>
<path d="M493.228 264.941C492.669 264.953 492.112 264.972 491.535 264.972C468.26 264.972 451.388 250.075 451.388 229.553V229.095C451.388 209.461 468.3 194.085 489.877 194.085C491.035 194.085 492.152 194.124 493.228 194.185V170.601C492.231 170.561 491.193 170.561 490.157 170.561C447.879 170.561 415.971 195.9 415.971 229.553V229.983C415.971 262.809 448.317 288.525 489.619 288.525C490.875 288.525 492.031 288.495 493.228 288.464V264.941Z" fill="#004B8D"/>
<path d="M65.7827 215.522C40.8333 210.199 37.324 207.646 37.324 199.759V199.401C37.324 193.586 43.7253 188.959 55.88 188.959C62.0813 188.959 70.18 190.646 75.864 192.75V167.599C70.5787 166.683 62.4627 165.635 56.3 165.635C26.804 165.635 5.79334 180.043 5.79334 201.833V202.162C5.79334 225.983 24.5293 232.665 53.6173 238.837C77.7387 243.982 80.012 247.411 80.012 254.102V254.442C80.012 261.471 72.1733 265.75 59.1813 265.75C42.688 265.75 31.7587 260.097 18.776 251.179L0 269.867C17.3213 282.719 36.7067 289.073 58.5627 289.073C89.704 289.073 111.561 275.701 111.561 251.87V251.529C111.561 230.609 95.048 221.866 65.7827 215.522Z" fill="#004B8D"/>
<path d="M162.614 182.817C130.229 182.817 107.611 205.951 107.611 234.021V234.38C107.611 264.481 132.302 285.223 165.725 285.223C166.683 285.223 169.794 285.095 170.751 285.073V262.648C169.954 262.679 166.962 262.828 166.126 262.828C152.006 262.828 142.053 256.237 138.923 243.562H215.682C215.862 240.98 216.081 239.335 216.081 236.573V236.224C216.081 208.324 199.749 182.817 162.614 182.817ZM138.525 226.143C141.015 213.478 149.533 205.203 162.614 205.203C175.877 205.203 184.193 213.649 186.067 226.143H138.525Z" fill="#004B8D"/>
<path d="M316.173 231.327C316.173 204.714 299.901 183.943 265.48 183.943C231.017 183.943 214.744 204.714 214.744 231.327V283.41H246.635V229.405C247.212 219.551 251.08 207.917 265.48 207.917C279.837 207.917 284.027 219.551 284.585 229.405V283.41H316.173V231.327Z" fill="#004B8D"/>
<path d="M387.405 248.405C384.661 262.786 369.817 264.941 366.45 265.118C342.444 266.383 341.59 249.967 349.66 244.966C360.512 238.241 387.501 242.022 387.501 242.022C387.501 242.995 387.758 245.445 387.405 248.405ZM368.026 183.377C366.63 183.377 361.804 183.395 360.486 183.435V207.238C366.63 207.297 375.045 208.333 378.794 210.309C384.302 213.209 387.161 218.095 387.297 224.714C379.784 223.833 371.266 223.233 363.882 223.043C333.761 222.27 318.868 232.23 315.877 248.171C315.818 248.469 315.765 248.771 315.714 249.075C315.698 249.178 315.682 249.281 315.666 249.385C315.432 250.907 315.297 252.506 315.297 254.202V254.562C315.297 274.046 332.526 284.685 353.469 284.685C368.844 284.685 379.433 279.71 387.09 272.191V283.529H417.602V225.765C417.602 199.139 402.448 183.377 368.026 183.377Z" fill="#004B8D"/>
</g>
</svg>
